<svg width="160" height="160" viewBox="0 0 160 160" fill="none" xmlns="http://www.w3.org/2000/svg">
<path d="M80 146.666C43.18 146.666 13.3333 116.82 13.3333 79.9997C13.3333 43.1797 43.18 13.333 80 13.333C116.82 13.333 146.667 43.1797 146.667 79.9997C146.667 116.82 116.82 146.666 80 146.666ZM80 133.333C94.1449 133.333 107.71 127.714 117.712 117.712C127.714 107.71 133.333 94.1446 133.333 79.9997C133.333 65.8548 127.714 52.2893 117.712 42.2873C107.71 32.2854 94.1449 26.6663 80 26.6663C65.8551 26.6663 52.2896 32.2854 42.2876 42.2873C32.2857 52.2893 26.6667 65.8548 26.6667 79.9997C26.6667 94.1446 32.2857 107.71 42.2876 117.712C52.2896 127.714 65.8551 133.333 80 133.333ZM73.3333 99.9997H86.6667V113.333H73.3333V99.9997ZM73.3333 46.6663H86.6667V86.6663H73.3333V46.6663Z" fill="#3A434B"/>
</svg>
